<svg xmlns="http://www.w3.org/2000/svg" xmlns:xlink="http://www.w3.org/1999/xlink" width="500" zoomAndPan="magnify" viewBox="0 0 375 374.999991" height="500" preserveAspectRatio="xMidYMid meet" version="1.0"><defs><clipPath id="759caab8ee"><path d="M 120 26.585938 L 337.457031 26.585938 L 337.457031 141 L 120 141 Z M 120 26.585938 " clip-rule="nonzero"/></clipPath><clipPath id="a6c190d33c"><path d="M 21.707031 90 L 298 90 L 298 348.335938 L 21.707031 348.335938 Z M 21.707031 90 " clip-rule="nonzero"/></clipPath><clipPath id="20784b72d4"><path d="M 124 22.878906 L 341.601562 22.878906 L 341.601562 137 L 124 137 Z M 124 22.878906 " clip-rule="nonzero"/></clipPath><clipPath id="28f851b8be"><path d="M 26 87 L 302 87 L 302 344.628906 L 26 344.628906 Z M 26 87 " clip-rule="nonzero"/></clipPath></defs><g clip-path="url(#759caab8ee)"><path fill="#d9d9d9" d="M 190.738281 41.382812 L 297.761719 41.382812 C 311.328125 41.382812 322.433594 52.488281 322.433594 66.050781 C 322.433594 79.617188 311.328125 90.722656 297.761719 90.722656 C 248.488281 90.722656 199.214844 90.722656 149.941406 90.722656 L 149.941406 105.515625 C 199.214844 105.515625 248.488281 105.515625 297.761719 105.515625 C 319.472656 105.515625 337.226562 87.761719 337.226562 66.050781 C 337.226562 44.339844 319.472656 26.585938 297.761719 26.585938 L 155.492188 26.585938 C 144.753906 27.765625 135.261719 33.304688 128.863281 41.382812 C 123.527344 48.117188 120.332031 56.609375 120.332031 65.820312 C 120.332031 90.574219 120.332031 115.308594 120.332031 140.0625 L 135.128906 140.0625 C 135.128906 115.308594 135.128906 90.574219 135.128906 65.820312 C 135.128906 53.402344 144.421875 43.0625 156.40625 41.382812 C 165.636719 40.101562 181.078125 41.382812 190.738281 41.382812 Z M 190.738281 41.382812 " fill-opacity="1" fill-rule="evenodd"/></g><g clip-path="url(#a6c190d33c)"><path fill="#d9d9d9" d="M 37.117188 161.273438 C 42.867188 165.777344 51.476562 169.503906 58.859375 169.503906 C 125.238281 169.503906 191.632812 169.503906 258.027344 169.503906 C 258.976562 169.503906 259.925781 169.550781 260.855469 169.652344 C 273.105469 171.082031 282.679688 181.554688 282.679688 194.15625 C 282.679688 207.738281 271.59375 218.824219 258.027344 218.824219 L 191.863281 218.824219 C 187.792969 218.824219 184.464844 222.167969 184.464844 226.222656 L 184.464844 308.910156 C 184.464844 322.472656 173.359375 333.582031 159.796875 333.582031 C 146.230469 333.582031 135.125 322.476562 135.125 308.910156 C 135.125 267.367188 135.125 225.824219 135.125 184.296875 L 120.332031 184.296875 C 120.332031 225.824219 120.332031 267.367188 120.332031 308.910156 C 120.332031 330.621094 138.085938 348.375 159.796875 348.375 C 181.507812 348.375 199.261719 330.621094 199.261719 308.910156 L 199.261719 233.636719 L 258.027344 233.636719 C 279.71875 233.636719 297.492188 215.867188 297.492188 194.15625 C 297.492188 181.585938 291.523438 170.332031 282.28125 163.085938 C 276.527344 158.582031 267.917969 154.855469 260.535156 154.855469 C 194.15625 154.855469 127.761719 154.855469 61.367188 154.855469 C 60.417969 154.855469 59.472656 154.804688 58.523438 154.6875 C 46.292969 153.277344 36.699219 142.804688 36.699219 130.1875 C 36.699219 116.621094 47.804688 105.515625 61.371094 105.515625 C 76.097656 105.515625 90.8125 105.515625 105.539062 105.515625 L 105.539062 90.722656 L 61.371094 90.722656 C 51.941406 90.722656 43.234375 94.078125 36.433594 99.664062 C 27.574219 106.914062 21.90625 117.917969 21.90625 130.1875 C 21.90625 142.371094 27.539062 153.777344 37.117188 161.273438 Z M 37.117188 161.273438 " fill-opacity="1" fill-rule="evenodd"/></g><g clip-path="url(#20784b72d4)"><path fill="#a6a6a6" d="M 194.882812 37.671875 L 301.910156 37.671875 C 315.472656 37.671875 326.578125 48.777344 326.578125 62.34375 C 326.578125 75.90625 315.476562 87.011719 301.910156 87.011719 C 252.636719 87.011719 203.363281 87.011719 154.089844 87.011719 L 154.089844 101.808594 C 203.363281 101.808594 252.636719 101.808594 301.910156 101.808594 C 323.621094 101.808594 341.375 84.054688 341.375 62.34375 C 341.375 40.632812 323.617188 22.878906 301.910156 22.878906 L 159.640625 22.878906 C 148.902344 24.058594 139.410156 29.59375 133.007812 37.671875 C 127.671875 44.40625 124.480469 52.902344 124.480469 62.113281 C 124.480469 86.867188 124.480469 111.601562 124.480469 136.355469 L 139.277344 136.355469 C 139.277344 111.601562 139.277344 86.863281 139.277344 62.113281 C 139.277344 49.695312 148.570312 39.351562 160.554688 37.671875 C 169.78125 36.390625 185.226562 37.671875 194.882812 37.671875 Z M 194.882812 37.671875 " fill-opacity="1" fill-rule="evenodd"/></g><g clip-path="url(#28f851b8be)"><path fill="#a6a6a6" d="M 41.261719 157.566406 C 47.015625 162.070312 55.625 165.792969 63.003906 165.792969 C 129.382812 165.792969 195.78125 165.792969 262.175781 165.792969 C 263.125 165.792969 264.070312 165.84375 265 165.941406 C 277.253906 167.371094 286.828125 177.84375 286.828125 190.445312 C 286.828125 204.027344 275.742188 215.117188 262.175781 215.117188 L 196.011719 215.117188 C 191.9375 215.117188 188.613281 218.457031 188.613281 222.515625 L 188.613281 305.199219 C 188.613281 318.765625 177.507812 329.871094 163.941406 329.871094 C 150.378906 329.871094 139.273438 318.765625 139.273438 305.199219 C 139.273438 263.660156 139.273438 222.113281 139.273438 180.589844 L 124.476562 180.589844 C 124.476562 222.113281 124.476562 263.660156 124.476562 305.199219 C 124.476562 326.914062 142.230469 344.667969 163.941406 344.667969 C 185.652344 344.667969 203.40625 326.910156 203.40625 305.199219 L 203.40625 229.929688 L 262.171875 229.929688 C 283.867188 229.929688 301.636719 212.15625 301.636719 190.445312 C 301.636719 177.878906 295.667969 166.625 286.425781 159.375 C 280.675781 154.871094 272.0625 151.148438 264.683594 151.148438 C 198.304688 151.148438 131.910156 151.148438 65.511719 151.148438 C 64.566406 151.148438 63.617188 151.097656 62.671875 150.980469 C 50.4375 149.570312 40.847656 139.097656 40.847656 126.476562 C 40.847656 112.914062 51.953125 101.808594 65.515625 101.808594 C 80.246094 101.808594 94.957031 101.808594 109.6875 101.808594 L 109.6875 87.011719 L 65.515625 87.011719 C 56.089844 87.011719 47.378906 90.371094 40.582031 95.957031 C 31.71875 103.203125 26.050781 114.210938 26.050781 126.476562 C 26.050781 138.664062 31.6875 150.066406 41.261719 157.566406 Z M 41.261719 157.566406 " fill-opacity="1" fill-rule="evenodd"/></g></svg>